<svg viewBox="0 0 1440 240" xmlns="http://www.w3.org/2000/svg">
    <path
      fill="#E8E1DA"
      fill-opacity="1"
      d="M0,160L60,165.3C120,170,240,180,360,186.7C480,193,600,195,720,186.7C840,178,960,160,1080,154.7C1200,149,1320,155,1380,158.7L1440,160L1440,320L1380,320C1320,320,1200,320,1080,320C960,320,840,320,720,320C600,320,480,320,360,320C240,320,120,320,60,320L0,320Z"
    ></path>

    <path
      fill="#E8E1DA"
      fill-opacity="0.7"
      d="M0,192L60,186.7C120,181,240,171,360,176C480,181,600,203,720,202.7C840,203,960,181,1080,165.3C1200,149,1320,139,1380,133.3L1440,128L1440,320L1380,320C1320,320,1200,320,1080,320C960,320,840,320,720,320C600,320,480,320,360,320C240,320,120,320,60,320L0,320Z"
    ></path>

    <path
      fill="#E8E1DA"
      fill-opacity="0.4"
      d="M0,224L60,218.7C120,213,240,203,360,186.7C480,171,600,149,720,149.3C840,149,960,171,1080,186.7C1200,203,1320,213,1380,218.7L1440,224L1440,320L1380,320C1320,320,1200,320,1080,320C960,320,840,320,720,320C600,320,480,320,360,320C240,320,120,320,60,320L0,320Z"
    ></path>
  </svg>